<svg width="61" height="32" viewBox="0 0 61 32" fill="none" xmlns="http://www.w3.org/2000/svg">
<path d="M15.9874 32C7.1595 32 0 24.8349 0 16C0 7.16513 7.1595 0 15.9874 0H45.0126C53.8405 0 61 7.16513 61 16C61 24.8349 53.8405 32 45.0126 32H15.9874Z" fill="#E2011A"/>
<path d="M58.5435 15.9992C58.5435 23.4743 52.4892 29.5403 45.0129 29.5403C37.5367 29.5403 31.4824 23.4813 31.4824 15.9992C31.4824 8.51701 37.5367 2.45801 45.0129 2.45801C52.4892 2.45801 58.5435 8.51701 58.5435 15.9992Z" fill="white"/>
<path d="M40.7107 8.01862H49.8976V11.3158L44.139 21.7077H50.0384V24.6457H39.9785V21.4048L45.7371 10.9636H40.7107V8.01862Z" fill="#E2011A"/>
<path d="M12.2914 24.6449C10.982 24.6449 10.271 23.8136 10.271 22.6722V7.04565H12.1718V22.9822H13.981V24.6449H12.2914Z" fill="white"/>
<path d="M25.6461 24.6448C24.2452 24.6448 23.675 23.7853 23.5342 22.6439H23.4145C22.8935 24.1446 21.5841 24.9266 19.8735 24.9266C17.2828 24.9266 15.7622 23.4964 15.7622 21.2137C15.7622 18.931 17.4236 17.6206 20.9928 17.6206H23.4145V16.4088C23.4145 14.6756 22.4641 13.7245 20.5141 13.7245C19.0428 13.7245 18.0642 14.4361 17.4025 15.5563L16.262 14.4854C16.9308 13.175 18.4021 12.0829 20.6126 12.0829C23.5623 12.0829 25.3152 13.6259 25.3152 16.2186V22.9751H26.7162V24.6378H25.6461V24.6448ZM23.4145 21.0799V19.0578H20.8942C18.733 19.0578 17.7545 19.7272 17.7545 20.9108V21.411C17.7545 22.6228 18.7049 23.3132 20.1762 23.3132C22.0558 23.3132 23.4074 22.341 23.4074 21.0799H23.4145Z" fill="white"/>
</svg>
