<svg width="78" height="78" viewBox="0 0 78 78" fill="none" xmlns="http://www.w3.org/2000/svg">
<path d="M57.8074 0H19.379C8.67626 0 0 8.67626 0 19.379V57.8074C0 68.5101 8.67626 77.1864 19.379 77.1864H57.8074C68.5101 77.1864 77.1864 68.5101 77.1864 57.8074V19.379C77.1864 8.67626 68.5101 0 57.8074 0Z" fill="#E2001A"/>
<path d="M41.1679 11.5742H36.0195V68.1802H41.1679V11.5742Z" fill="white"/>
<path d="M65.6047 36.0195H11.5762V41.1679H65.6047V36.0195Z" fill="white"/>
<path d="M56.6047 51.4579C55.9459 51.4579 55.287 51.206 54.7831 50.7021C53.7754 49.7009 53.7754 48.0666 54.7831 47.0653L63.2582 38.5903L54.7831 30.1152C53.7754 29.114 53.7754 27.4797 54.7831 26.4784C55.7844 25.4707 57.4187 25.4707 58.4199 26.4784L70.5318 38.5903L58.4199 50.7021C57.9161 51.206 57.2572 51.4579 56.5983 51.4579H56.6047Z" fill="white"/>
<path d="M48.887 23.1587C48.2281 23.1587 47.5692 22.9068 47.0653 22.4029L38.5903 13.9279L30.1152 22.4029C29.114 23.4106 27.4797 23.4106 26.4784 22.4029C25.4707 21.4017 25.4707 19.7674 26.4784 18.7661L38.5903 6.6543L50.7021 18.7661C51.7098 19.7674 51.7098 21.4017 50.7021 22.4029C50.1983 22.9068 49.5394 23.1587 48.8805 23.1587H48.887Z" fill="white"/>
<path d="M20.58 51.4579C19.9211 51.4579 19.2622 51.206 18.7583 50.7021L6.64648 38.5903L18.7583 26.4784C19.7596 25.4707 21.3939 25.4707 22.3951 26.4784C23.4028 27.4797 23.4028 29.114 22.3951 30.1152L13.9201 38.5903L22.3951 47.0653C23.4028 48.0666 23.4028 49.7009 22.3951 50.7021C21.8913 51.206 21.2324 51.4579 20.5735 51.4579H20.58Z" fill="white"/>
<path d="M41.1673 36.0197V24.6765C40.334 24.5215 39.4748 24.4375 38.5963 24.4375C37.7178 24.4375 36.8587 24.5215 36.0254 24.6765V36.0197H41.1737H41.1673Z" fill="black"/>
<path d="M36.0182 41.168V52.5111C36.8515 52.6662 37.7106 52.7501 38.5891 52.7501C39.4676 52.7501 40.3268 52.6662 41.1601 52.5111V41.168H36.0117H36.0182Z" fill="black"/>
<path d="M52.5111 36.0195H41.168V41.1679H52.5111C52.6662 40.3346 52.7501 39.4754 52.7501 38.5969C52.7501 37.7184 52.6662 36.8593 52.5111 36.026V36.0195Z" fill="black"/>
<path d="M36.0197 36.0182H24.6765C24.5215 36.8515 24.4375 37.7106 24.4375 38.5891C24.4375 39.4676 24.5215 40.3268 24.6765 41.1601H36.0197V36.0117V36.0182Z" fill="black"/>
<path d="M41.1679 36.0195H36.0195V41.1679H41.1679V36.0195Z" fill="white"/>
<path d="M38.5969 48.8871C44.28 48.8871 48.8871 44.28 48.8871 38.5969C48.8871 32.9137 44.28 28.3066 38.5969 28.3066C32.9137 28.3066 28.3066 32.9137 28.3066 38.5969C28.3066 44.28 32.9137 48.8871 38.5969 48.8871Z" fill="white"/>
</svg>
